<?xml version="1.0" encoding="utf-8"?>
<!-- Generator: Adobe Illustrator 24.0.0, SVG Export Plug-In . SVG Version: 6.00 Build 0)  -->
<svg version="1.1" id="Capa_1" xmlns="http://www.w3.org/2000/svg" xmlns:xlink="http://www.w3.org/1999/xlink" x="0px" y="0px"
	 viewBox="0 0 424 512" style="enable-background:new 0 0 424 512;" xml:space="preserve">
<style type="text/css">
	.st0{fill:#1F87AD;}
</style>
<g>
	<g id="Page-1_28_">
		<g id="finance_and_pointers_export_28_" transform="translate(-176.000000, -776.000000)">
			<path id="layers_x2C_-terrain_x2C_-elevation_x2C_-ground_x2C_-soil_x2C_-map" class="st0" d="M222.1,776h331.9
				c19.6,0,35.6,15.9,35.6,35.6v331.9c0,19.6-15.9,35.6-35.6,35.6H222.1c-19.6,0-35.6-15.9-35.6-35.6V811.6
				C186.5,791.9,202.4,776,222.1,776z M565.8,1033.5c-62.2-21-94.8-51.3-94.8-91.6c0-43.1,34.6-55,94.8-39.4v-91
				c0-6.5-5.3-11.9-11.9-11.9h-80.9c4.6,36.3-3,65.1-23.3,85.4c-14.4,14.4-28.5,18.3-60.8,21.6c-6.6,0.7-9,0.9-12.3,1.4
				c-21.3,2.7-34.3,7.5-45.4,18.5c-5.9,5.9-9.9,11.6-12.8,17.6c-3.8,8-5.3,15-7.1,31c-3.5,30.2-7.1,44.9-19.6,67.4
				c-19.6,35.3-46.9,58.4-81.5,68.6v32.3c0,6.5,5.3,11.9,11.9,11.9h87.9c44.4-78.6,90.2-116.9,138.4-112.6
				c49.1,4.5,66.8,44.2,54.9,112.6h50.7c6.5,0,11.9-5.3,11.9-11.9L565.8,1033.5L565.8,1033.5z M494.7,941.9
				c0,26.4,22.8,48.8,71.1,66.5V927C515.1,912.4,494.7,918.7,494.7,941.9z M337.3,1155.3h141.8c11.4-58.7-0.2-86-32.9-88.9
				C411.8,1063.2,375.2,1092.2,337.3,1155.3z M449.1,799.7H222.1c-6.5,0-11.9,5.3-11.9,11.9v274.6c25.3-9.3,45.4-27.5,60.8-55.2
				c10.6-19.1,13.6-31.3,16.8-58.6c2.1-18.4,4-27.4,9.3-38.4c4-8.5,9.7-16.4,17.4-24.1c15.5-15.5,33.1-22,59.1-25.3
				c3.6-0.5,6.2-0.7,12.9-1.4c27-2.8,37.3-5.6,46.5-14.8C448.1,853.3,453.7,830.7,449.1,799.7z"/>
		</g>
	</g>
</g>
<g>
	<path class="st0" d="M359,424.7l17.2,17.2H47.9l17.2-17.2l-10.6-10.6L19,449.5l35.4,35.4l10.6-10.6l-17.2-17.2h328.4L359,474.2
		l10.6,10.6l35.4-35.4L369.6,414L359,424.7z"/>
	<path class="st0" d="M234.6,483h15v15h-15V483z"/>
	<path class="st0" d="M204.5,483h15v15h-15V483z"/>
	<path class="st0" d="M174.5,483h15v15h-15V483z"/>
</g>
</svg>
